<svg xmlns="http://www.w3.org/2000/svg" width="1200" height="800" viewBox="0 0 1200 800" fill="none">
  <rect width="1200" height="800" fill="#082B45"/>
  <g stroke="#7DD3FC" stroke-opacity="0.25" stroke-width="1">
    <path d="M0 80H1200M0 160H1200M0 240H1200M0 320H1200M0 400H1200M0 480H1200M0 560H1200M0 640H1200M0 720H1200"/>
    <path d="M120 0V800M240 0V800M360 0V800M480 0V800M600 0V800M720 0V800M840 0V800M960 0V800M1080 0V800"/>
  </g>
  <g stroke="#38BDF8" stroke-opacity="0.45" stroke-width="2">
    <circle cx="850" cy="520" r="110"/>
    <circle cx="300" cy="250" r="80"/>
    <rect x="130" y="460" width="370" height="170" rx="10"/>
  </g>
</svg>

